999
"DXF R12 Output" (www.mydxf.blogspot.com)
 0 
SECTION
 2 
HEADER
 9 
$ACADVER
 1 
AC1009
 9 
$EXTMIN
 10 
 0 
 20 
 0 
 9 
$EXTMAX
 10 
 8.5 
 20 
 11 
 0 
ENDSEC
 0 
SECTION
 2 
ENTITIES
0
LINE
8
Layer 1
10
0.038744
20
1.379540
11
0.036975
21
1.141867
0
LINE
8
Layer 1
10
0.036975
20
1.141867
11
0.050773
21
1.216643
0
LINE
8
Layer 1
10
0.050773
20
1.216643
11
0.071622
21
1.234940
0
LINE
8
Layer 1
10
0.071622
20
1.234940
11
0.099654
21
1.239619
0
LINE
8
Layer 1
10
0.099654
20
1.239619
11
0.136815
21
1.233345
0
LINE
8
Layer 1
10
0.136815
20
1.233345
11
0.150701
21
1.215653
0
LINE
8
Layer 1
10
0.150701
20
1.215653
11
0.154079
21
1.176562
0
LINE
8
Layer 1
10
0.154079
20
1.176562
11
0.153336
21
1.136136
0
LINE
8
Layer 1
10
0.258166
20
1.300040
11
0.258152
21
1.133823
0
LINE
8
Layer 1
10
0.256329
20
1.382230
11
0.256329
21
1.347390
0
LINE
8
Layer 1
10
0.483787
20
1.371990
11
0.482692
21
1.142943
0
LINE
8
Layer 1
10
0.433615
20
1.373870
11
0.483787
21
1.371994
0
LINE
8
Layer 1
10
0.483787
20
1.371994
11
0.535102
21
1.377452
0
LINE
8
Layer 1
10
0.627343
20
1.373700
11
0.635438
21
1.138220
0
LINE
8
Layer 1
10
0.635438
20
1.138220
11
0.649058
21
1.188090
0
LINE
8
Layer 1
10
0.649058
20
1.188090
11
0.678119
21
1.229270
0
LINE
8
Layer 1
10
0.678119
20
1.229270
11
0.718760
21
1.223330
0
LINE
8
Layer 1
10
0.718760
20
1.223330
11
0.756062
21
1.192270
0
LINE
8
Layer 1
10
0.756062
20
1.192270
11
0.773595
21
1.130340
0
LINE
8
Layer 1
10
0.856470
20
1.209740
11
0.907361
21
1.209740
0
LINE
8
Layer 1
10
0.907361
20
1.209740
11
0.950423
21
1.209740
0
LINE
8
Layer 1
10
0.950423
20
1.209740
11
0.939975
21
1.235780
0
LINE
8
Layer 1
10
0.939975
20
1.235780
11
0.914133
21
1.259520
0
LINE
8
Layer 1
10
0.914133
20
1.259520
11
0.875220
21
1.260610
0
LINE
8
Layer 1
10
0.875220
20
1.260610
11
0.853823
21
1.229840
0
LINE
8
Layer 1
10
0.853823
20
1.229840
11
0.850930
21
1.191250
0
LINE
8
Layer 1
10
0.850930
20
1.191250
11
0.870419
21
1.162770
0
LINE
8
Layer 1
10
0.870419
20
1.162770
11
0.919684
21
1.129240
0
LINE
8
Layer 1
10
0.919684
20
1.129240
11
0.936993
21
1.134590
0
LINE
8
Layer 1
10
1.146980
20
1.211040
11
1.197870
21
1.211040
0
LINE
8
Layer 1
10
1.197870
20
1.211040
11
1.240930
21
1.211040
0
LINE
8
Layer 1
10
1.240930
20
1.211040
11
1.230480
21
1.237070
0
LINE
8
Layer 1
10
1.230480
20
1.237070
11
1.204640
21
1.260810
0
LINE
8
Layer 1
10
1.204640
20
1.260810
11
1.165730
21
1.261910
0
LINE
8
Layer 1
10
1.165730
20
1.261910
11
1.144333
21
1.231133
0
LINE
8
Layer 1
10
1.144333
20
1.231133
11
1.141441
21
1.192543
0
LINE
8
Layer 1
10
1.141441
20
1.192543
11
1.160930
21
1.164068
0
LINE
8
Layer 1
10
1.160930
20
1.164068
11
1.210194
21
1.130533
0
LINE
8
Layer 1
10
1.210194
20
1.130533
11
1.227504
21
1.135884
0
LINE
8
Layer 1
10
1.029580
20
1.251540
11
1.025000
21
1.126020
0
LINE
8
Layer 1
10
1.025000
20
1.126020
11
1.028110
21
1.175290
0
LINE
8
Layer 1
10
1.028110
20
1.175290
11
1.037580
21
1.204470
0
LINE
8
Layer 1
10
1.037580
20
1.204470
11
1.054740
21
1.222260
0
LINE
8
Layer 1
10
1.054740
20
1.222260
11
1.074030
21
1.238360
0
LINE
8
Layer 1
10
0.481766
20
0.962110
11
0.481766
21
0.709865
0
LINE
8
Layer 1
10
0.481766
20
0.709865
11
0.751613
21
0.709865
0
LINE
8
Layer 1
10
0.751613
20
0.709865
11
0.481766
21
0.962110
0
LINE
8
Layer 1
10
0.139497
20
0.965887
11
0.139497
21
0.715495
0
LINE
8
Layer 1
10
0.139497
20
0.715495
11
0.350020
21
0.715495
0
LINE
8
Layer 1
10
0.350020
20
0.715495
11
0.350020
21
0.969393
0
LINE
8
Layer 1
10
0.350020
20
0.969393
11
0.139497
21
0.965887
 0 
ENDSEC
 0 
EOF