  0
SECTION
  2
HEADER
  9
$ACADVER
  1
AC1014
  9
$HANDSEED
  5
FFFF
  9
$MEASUREMENT
 70
     1
  0
ENDSEC
  0
SECTION
  2
TABLES
  0
TABLE
  2
VPORT
  5
8
330
0
100
AcDbSymbolTable
 70
     4
  0
VPORT
  5
2E
330
8
100
AcDbSymbolTableRecord
100
AcDbViewportTableRecord
  2
*ACTIVE
 70
     0
 10
0.0
 20
0.0
 11
1.0
 21
1.0
 12
210.0
 22
148.5
 13
0.0
 23
0.0
 14
10.0
 24
10.0
 15
10.0
 25
10.0
 16
0.0
 26
0.0
 36
1.0
 17
0.0
 27
0.0
 37
0.0
 40
341.0
 41
1.24
 42
50.0
 43
0.0
 44
0.0
 50
0.0
 51
0.0
 71
     0
 72
   100
 73
     1
 74
     3
 75
     0
 76
     0
 77
     0
 78
     0
  0
ENDTAB
  0
TABLE
  2
LTYPE
  5
5
330
0
100
AcDbSymbolTable
 70
     1
  0
LTYPE
  5
14
330
5
100
AcDbSymbolTableRecord
100
AcDbLinetypeTableRecord
  2
BYBLOCK
 70
     0
  3

 72
    65
 73
     0
 40
0.0
  0
LTYPE
  5
15
330
5
100
AcDbSymbolTableRecord
100
AcDbLinetypeTableRecord
  2
BYLAYER
 70
     0
  3

 72
    65
 73
     0
 40
0.0
  0
LTYPE
  5
16
330
5
100
AcDbSymbolTableRecord
100
AcDbLinetypeTableRecord
  2
CONTINUOUS
 70
     0
  3
Solid line
 72
    65
 73
     0
 40
0.0
  0
ENDTAB
  0
TABLE
  2
LAYER
  5
2
100
AcDbSymbolTable
 70
2
  0
LAYER
  5
50
100
AcDbSymbolTableRecord
100
AcDbLayerTableRecord
  2
0
 70
0
  6
CONTINUOUS
  0
LAYER
  5
51
100
AcDbSymbolTableRecord
100
AcDbLayerTableRecord
  2
Layer_1
 70
0
  6
CONTINUOUS
  0
ENDTAB
  0
TABLE
  2
STYLE
  5
3
330
0
100
AcDbSymbolTable
 70
     1
  0
STYLE
  5
11
330
3
100
AcDbSymbolTableRecord
100
AcDbTextStyleTableRecord
  2
STANDARD
 70
     0
 40
0.0
 41
1.0
 50
0.0
 71
     0
 42
2.5
  3
txt
  4

  0
ENDTAB
  0
TABLE
  2
VIEW
  5
6
330
0
100
AcDbSymbolTable
 70
     0
  0
ENDTAB
  0
TABLE
  2
UCS
  5
7
330
0
100
AcDbSymbolTable
 70
     0
  0
ENDTAB
  0
TABLE
  2
APPID
  5
9
330
0
100
AcDbSymbolTable
 70
     2
  0
APPID
  5
12
330
9
100
AcDbSymbolTableRecord
100
AcDbRegAppTableRecord
  2
ACAD
 70
     0
  0
ENDTAB
  0
TABLE
  2
DIMSTYLE
  5
A
330
0
100
AcDbSymbolTable
 70
     1
  0
DIMSTYLE
105
27
330
A
100
AcDbSymbolTableRecord
100
AcDbDimStyleTableRecord
  2
ISO-25
 70
     0
  3

  4

  5

  6

  7

 40
1.0
 41
2.5
 42
0.625
 43
3.75
 44
1.25
 45
0.0
 46
0.0
 47
0.0
 48
0.0
140
2.5
141
2.5
142
0.0
143
0.03937007874016
144
1.0
145
0.0
146
1.0
147
0.625
 71
     0
 72
     0
 73
     0
 74
     0
 75
     0
 76
     0
 77
     1
 78
     8
170
     0
171
     3
172
     1
173
     0
174
     0
175
     0
176
     0
177
     0
178
     0
270
     2
271
     2
272
     2
273
     2
274
     3
340
11
275
     0
280
     0
281
     0
282
     0
283
     0
284
     8
285
     0
286
     0
287
     3
288
     0
  0
ENDTAB
  0
TABLE
  2
BLOCK_RECORD
  5
1
330
0
100
AcDbSymbolTable
 70
     1
  0
BLOCK_RECORD
  5
1F
330
1
100
AcDbSymbolTableRecord
100
AcDbBlockTableRecord
  2
*MODEL_SPACE
  0
BLOCK_RECORD
  5
1B
330
1
100
AcDbSymbolTableRecord
100
AcDbBlockTableRecord
  2
*PAPER_SPACE
  0
ENDTAB
  0
ENDSEC
  0
SECTION
  2
BLOCKS
  0
BLOCK
  5
20
330
1F
100
AcDbEntity
  8
0
100
AcDbBlockBegin
  2
*MODEL_SPACE
 70
     0
 10
0.0
 20
0.0
 30
0.0
  3
*MODEL_SPACE
  1

  0
ENDBLK
  5
21
330
1F
100
AcDbEntity
  8
0
100
AcDbBlockEnd
  0
BLOCK
  5
1C
330
1B
100
AcDbEntity
 67
     1
  8
0
100
AcDbBlockBegin
  2
*PAPER_SPACE
  1

  0
ENDBLK
  5
1D
330
1B
100
AcDbEntity
 67
     1
  8
0
100
AcDbBlockEnd
  0
ENDSEC
  0
SECTION
  2
ENTITIES
  0
LWPOLYLINE
  5
100
100
AcDbEntity
  8
Layer_1
 62
7
100
AcDbPolyline
 90
44
 70
1
 10
1.625408
 20
2.263361
 30
0.0
 10
1.698586
 20
2.292811
 30
0.0
 10
1.788909
 20
2.375539
 30
0.0
 10
1.846345
 20
2.434769
 30
0.0
 10
1.879711
 20
2.521540
 30
0.0
 10
1.955917
 20
2.707657
 30
0.0
 10
2.021886
 20
2.949545
 30
0.0
 10
2.056967
 20
3.269451
 30
0.0
 10
2.078931
 20
3.541791
 30
0.0
 10
2.118334
 20
3.892203
 30
0.0
 10
2.105568
 20
4.141757
 30
0.0
 10
1.996217
 20
4.144325
 30
0.0
 10
1.845566
 20
4.144325
 30
0.0
 10
1.741068
 20
4.239841
 30
0.0
 10
1.724098
 20
4.391279
 30
0.0
 10
1.801253
 20
4.416829
 30
0.0
 10
1.913666
 20
4.416829
 30
0.0
 10
1.982664
 20
4.343434
 30
0.0
 10
1.982664
 20
4.500346
 30
0.0
 10
1.982664
 20
4.626063
 30
0.0
 10
2.103131
 20
4.682499
 30
0.0
 10
2.209189
 20
4.662240
 30
0.0
 10
2.326535
 20
4.588174
 30
0.0
 10
2.419314
 20
4.772638
 30
0.0
 10
2.589101
 20
4.803234
 30
0.0
 10
2.758122
 20
4.808728
 30
0.0
 10
2.839374
 20
4.641848
 30
0.0
 10
2.826483
 20
4.460966
 30
0.0
 10
3.002176
 20
4.421612
 30
0.0
 10
3.002176
 20
4.250111
 30
0.0
 10
2.787712
 20
4.175922
 30
0.0
 10
2.560533
 20
4.132222
 30
0.0
 10
2.564933
 20
3.962079
 30
0.0
 10
2.604027
 20
3.735092
 30
0.0
 10
2.612817
 20
3.551804
 30
0.0
 10
2.612817
 20
3.252743
 30
0.0
 10
2.642923
 20
3.117766
 30
0.0
 10
2.642923
 20
2.952264
 30
0.0
 10
2.656117
 20
2.716589
 30
0.0
 10
2.716558
 20
2.616792
 30
0.0
 10
2.807921
 20
2.446763
 30
0.0
 10
2.899231
 20
2.328010
 30
0.0
 10
2.962706
 20
2.272139
 30
0.0
 10
1.660711
 20
2.256339
 30
0.0
  0
LWPOLYLINE
  5
101
100
AcDbEntity
  8
Layer_1
 62
7
100
AcDbPolyline
 90
4
 70
0
 10
0.917063
 20
0.502259
 30
0.0
 10
0.917063
 20
1.910704
 30
0.0
 10
0.525738
 20
1.910704
 30
0.0
 10
1.245313
 20
1.910704
 30
0.0
  0
LWPOLYLINE
  5
102
100
AcDbEntity
  8
Layer_1
 62
7
100
AcDbPolyline
 90
9
 70
0
 10
1.897884
 20
0.531137
 30
0.0
 10
1.897884
 20
1.950646
 30
0.0
 10
2.118755
 20
1.941576
 30
0.0
 10
2.366641
 20
1.892877
 30
0.0
 10
2.444076
 20
1.691775
 30
0.0
 10
2.444076
 20
1.533875
 30
0.0
 10
2.378468
 20
1.287421
 30
0.0
 10
2.000817
 20
1.380494
 30
0.0
 10
2.587163
 20
0.559243
 30
0.0
  0
LWPOLYLINE
  5
103
100
AcDbEntity
  8
Layer_1
 62
7
100
AcDbPolyline
 90
3
 70
0
 10
3.182379
 20
2.002093
 30
0.0
 10
3.182379
 20
0.631051
 30
0.0
 10
3.687864
 20
0.631051
 30
0.0
  0
LWPOLYLINE
  5
104
100
AcDbEntity
  8
Layer_1
 62
7
100
AcDbPolyline
 90
2
 70
0
 10
3.174250
 20
1.304835
 30
0.0
 10
3.602534
 20
1.304835
 30
0.0
  0
LWPOLYLINE
  5
105
100
AcDbEntity
  8
Layer_1
 62
7
100
AcDbPolyline
 90
2
 70
0
 10
3.182382
 20
2.002092
 30
0.0
 10
3.590495
 20
2.002092
 30
0.0
  0
LWPOLYLINE
  5
106
100
AcDbEntity
  8
Layer_1
 62
7
100
AcDbPolyline
 90
3
 70
0
 10
4.012566
 20
2.033764
 30
0.0
 10
4.012566
 20
0.662721
 30
0.0
 10
4.518051
 20
0.662721
 30
0.0
  0
LWPOLYLINE
  5
107
100
AcDbEntity
  8
Layer_1
 62
7
100
AcDbPolyline
 90
2
 70
0
 10
4.004437
 20
1.336505
 30
0.0
 10
4.432720
 20
1.336505
 30
0.0
  0
LWPOLYLINE
  5
108
100
AcDbEntity
  8
Layer_1
 62
7
100
AcDbPolyline
 90
2
 70
0
 10
4.012569
 20
2.033762
 30
0.0
 10
4.420682
 20
2.033762
 30
0.0
  0
ENDSEC
  0
SECTION
  2
OBJECTS
  0
DICTIONARY
  5
C
330
0
100
AcDbDictionary
  3
ACAD_GROUP
350
D
  3
ACAD_MLINESTYLE
350
17
  0
DICTIONARY
  5
D
330
C
100
AcDbDictionary
  0
DICTIONARY
  5
1A
330
C
100
AcDbDictionary
  0
DICTIONARY
  5
17
330
C
100
AcDbDictionary
  3
STANDARD
350
18
  0
DICTIONARY
  5
19
330
C
100
AcDbDictionary
  0
ENDSEC
  0
EOF
