  0
SECTION
  2
HEADER
  9
$ACADVER
  1
AC1014
  9
$HANDSEED
  5
FFFF
  9
$MEASUREMENT
 70
     1
  0
ENDSEC
  0
SECTION
  2
TABLES
  0
TABLE
  2
VPORT
  5
8
330
0
100
AcDbSymbolTable
 70
     4
  0
VPORT
  5
2E
330
8
100
AcDbSymbolTableRecord
100
AcDbViewportTableRecord
  2
*ACTIVE
 70
     0
 10
0.0
 20
0.0
 11
1.0
 21
1.0
 12
210.0
 22
148.5
 13
0.0
 23
0.0
 14
10.0
 24
10.0
 15
10.0
 25
10.0
 16
0.0
 26
0.0
 36
1.0
 17
0.0
 27
0.0
 37
0.0
 40
341.0
 41
1.24
 42
50.0
 43
0.0
 44
0.0
 50
0.0
 51
0.0
 71
     0
 72
   100
 73
     1
 74
     3
 75
     0
 76
     0
 77
     0
 78
     0
  0
ENDTAB
  0
TABLE
  2
LTYPE
  5
5
330
0
100
AcDbSymbolTable
 70
     1
  0
LTYPE
  5
14
330
5
100
AcDbSymbolTableRecord
100
AcDbLinetypeTableRecord
  2
BYBLOCK
 70
     0
  3

 72
    65
 73
     0
 40
0.0
  0
LTYPE
  5
15
330
5
100
AcDbSymbolTableRecord
100
AcDbLinetypeTableRecord
  2
BYLAYER
 70
     0
  3

 72
    65
 73
     0
 40
0.0
  0
LTYPE
  5
16
330
5
100
AcDbSymbolTableRecord
100
AcDbLinetypeTableRecord
  2
CONTINUOUS
 70
     0
  3
Solid line
 72
    65
 73
     0
 40
0.0
  0
ENDTAB
  0
TABLE
  2
LAYER
  5
2
100
AcDbSymbolTable
 70
2
  0
LAYER
  5
50
100
AcDbSymbolTableRecord
100
AcDbLayerTableRecord
  2
0
 70
0
  6
CONTINUOUS
  0
LAYER
  5
51
100
AcDbSymbolTableRecord
100
AcDbLayerTableRecord
  2
Layer_1
 70
0
  6
CONTINUOUS
  0
ENDTAB
  0
TABLE
  2
STYLE
  5
3
330
0
100
AcDbSymbolTable
 70
     1
  0
STYLE
  5
11
330
3
100
AcDbSymbolTableRecord
100
AcDbTextStyleTableRecord
  2
STANDARD
 70
     0
 40
0.0
 41
1.0
 50
0.0
 71
     0
 42
2.5
  3
txt
  4

  0
ENDTAB
  0
TABLE
  2
VIEW
  5
6
330
0
100
AcDbSymbolTable
 70
     0
  0
ENDTAB
  0
TABLE
  2
UCS
  5
7
330
0
100
AcDbSymbolTable
 70
     0
  0
ENDTAB
  0
TABLE
  2
APPID
  5
9
330
0
100
AcDbSymbolTable
 70
     2
  0
APPID
  5
12
330
9
100
AcDbSymbolTableRecord
100
AcDbRegAppTableRecord
  2
ACAD
 70
     0
  0
ENDTAB
  0
TABLE
  2
DIMSTYLE
  5
A
330
0
100
AcDbSymbolTable
 70
     1
  0
DIMSTYLE
105
27
330
A
100
AcDbSymbolTableRecord
100
AcDbDimStyleTableRecord
  2
ISO-25
 70
     0
  3

  4

  5

  6

  7

 40
1.0
 41
2.5
 42
0.625
 43
3.75
 44
1.25
 45
0.0
 46
0.0
 47
0.0
 48
0.0
140
2.5
141
2.5
142
0.0
143
0.03937007874016
144
1.0
145
0.0
146
1.0
147
0.625
 71
     0
 72
     0
 73
     0
 74
     0
 75
     0
 76
     0
 77
     1
 78
     8
170
     0
171
     3
172
     1
173
     0
174
     0
175
     0
176
     0
177
     0
178
     0
270
     2
271
     2
272
     2
273
     2
274
     3
340
11
275
     0
280
     0
281
     0
282
     0
283
     0
284
     8
285
     0
286
     0
287
     3
288
     0
  0
ENDTAB
  0
TABLE
  2
BLOCK_RECORD
  5
1
330
0
100
AcDbSymbolTable
 70
     1
  0
BLOCK_RECORD
  5
1F
330
1
100
AcDbSymbolTableRecord
100
AcDbBlockTableRecord
  2
*MODEL_SPACE
  0
BLOCK_RECORD
  5
1B
330
1
100
AcDbSymbolTableRecord
100
AcDbBlockTableRecord
  2
*PAPER_SPACE
  0
ENDTAB
  0
ENDSEC
  0
SECTION
  2
BLOCKS
  0
BLOCK
  5
20
330
1F
100
AcDbEntity
  8
0
100
AcDbBlockBegin
  2
*MODEL_SPACE
 70
     0
 10
0.0
 20
0.0
 30
0.0
  3
*MODEL_SPACE
  1

  0
ENDBLK
  5
21
330
1F
100
AcDbEntity
  8
0
100
AcDbBlockEnd
  0
BLOCK
  5
1C
330
1B
100
AcDbEntity
 67
     1
  8
0
100
AcDbBlockBegin
  2
*PAPER_SPACE
  1

  0
ENDBLK
  5
1D
330
1B
100
AcDbEntity
 67
     1
  8
0
100
AcDbBlockEnd
  0
ENDSEC
  0
SECTION
  2
ENTITIES
  0
LWPOLYLINE
  5
100
100
AcDbEntity
  8
Layer_1
 62
7
100
AcDbPolyline
 90
2
 70
0
 10
0.650554
 20
4.288848
 30
0.0
 10
0.644712
 20
3.354847
 30
0.0
  0
LWPOLYLINE
  5
101
100
AcDbEntity
  8
Layer_1
 62
7
100
AcDbPolyline
 90
2
 70
0
 10
1.235216
 20
4.291402
 30
0.0
 10
1.235738
 20
3.384463
 30
0.0
  0
LWPOLYLINE
  5
102
100
AcDbEntity
  8
Layer_1
 62
7
100
AcDbPolyline
 90
2
 70
0
 10
1.235136
 20
3.791692
 30
0.0
 10
0.641245
 20
3.801311
 30
0.0
  0
LWPOLYLINE
  5
103
100
AcDbEntity
  8
Layer_1
 62
7
100
AcDbPolyline
 90
2
 70
0
 10
1.578450
 20
4.217108
 30
0.0
 10
2.132779
 20
4.217621
 30
0.0
  0
LWPOLYLINE
  5
104
100
AcDbEntity
  8
Layer_1
 62
7
100
AcDbPolyline
 90
4
 70
0
 10
1.860020
 20
4.212410
 30
0.0
 10
1.869460
 20
3.429125
 30
0.0
 10
1.574074
 20
3.434345
 30
0.0
 10
2.130967
 20
3.448118
 30
0.0
  0
LWPOLYLINE
  5
105
100
AcDbEntity
  8
Layer_1
 62
7
100
AcDbPolyline
 90
2
 70
0
 10
2.731914
 20
4.213190
 30
0.0
 10
3.367052
 20
4.205247
 30
0.0
  0
LWPOLYLINE
  5
106
100
AcDbEntity
  8
Layer_1
 62
7
100
AcDbPolyline
 90
4
 70
0
 10
3.076568
 20
4.205657
 30
0.0
 10
3.073068
 20
3.465845
 30
0.0
 10
2.801866
 20
3.480032
 30
0.0
 10
3.321767
 20
3.464163
 30
0.0
  0
LWPOLYLINE
  5
107
100
AcDbEntity
  8
Layer_1
 62
7
100
AcDbPolyline
 90
4
 70
0
 10
3.456258
 20
4.371587
 30
0.0
 10
3.577024
 20
4.234372
 30
0.0
 10
3.675078
 20
4.232906
 30
0.0
 10
3.532482
 20
4.336310
 30
0.0
  0
LWPOLYLINE
  5
108
100
AcDbEntity
  8
Layer_1
 62
7
100
AcDbPolyline
 90
5
 70
0
 10
3.839237
 20
3.452556
 30
0.0
 10
3.847690
 20
4.160642
 30
0.0
 10
4.109982
 20
3.865891
 30
0.0
 10
4.391997
 20
4.115552
 30
0.0
 10
4.420209
 20
3.469569
 30
0.0
  0
LWPOLYLINE
  5
109
100
AcDbEntity
  8
Layer_1
 62
7
100
AcDbPolyline
 90
3
 70
0
 10
2.346754
 20
4.185745
 30
0.0
 10
2.340304
 20
3.681703
 30
0.0
 10
2.341954
 20
3.566764
 30
0.0
  0
LWPOLYLINE
  5
10a
100
AcDbEntity
  8
Layer_1
 62
7
100
AcDbPolyline
 90
6
 70
0
 10
2.303686
 20
3.507884
 30
0.0
 10
2.379302
 20
3.509474
 30
0.0
 10
2.379302
 20
3.443166
 30
0.0
 10
2.312623
 20
3.441546
 30
0.0
 10
2.310253
 20
3.492183
 30
0.0
 10
2.304113
 20
3.507330
 30
0.0
  0
LWPOLYLINE
  5
10b
100
AcDbEntity
  8
Layer_1
 62
7
100
AcDbPolyline
 90
3
 70
0
 10
3.976646
 20
1.665725
 30
0.0
 10
3.970196
 20
1.161683
 30
0.0
 10
3.971846
 20
1.046743
 30
0.0
  0
LWPOLYLINE
  5
10c
100
AcDbEntity
  8
Layer_1
 62
7
100
AcDbPolyline
 90
6
 70
0
 10
3.933578
 20
0.987864
 30
0.0
 10
4.009194
 20
0.989454
 30
0.0
 10
4.009194
 20
0.923146
 30
0.0
 10
3.942515
 20
0.921526
 30
0.0
 10
3.940145
 20
0.972163
 30
0.0
 10
3.934005
 20
0.987310
 30
0.0
  0
LWPOLYLINE
  5
10d
100
AcDbEntity
  8
Layer_1
 62
7
100
AcDbPolyline
 90
11
 70
0
 10
0.586760
 20
2.936987
 30
0.0
 10
0.378308
 20
2.940917
 30
0.0
 10
0.231272
 20
2.851691
 30
0.0
 10
0.178423
 20
2.733739
 30
0.0
 10
0.225138
 20
2.589379
 30
0.0
 10
0.379511
 20
2.478907
 30
0.0
 10
0.519204
 20
2.433953
 30
0.0
 10
0.605474
 20
2.265731
 30
0.0
 10
0.528034
 20
2.142223
 30
0.0
 10
0.390653
 20
2.076763
 30
0.0
 10
0.183866
 20
2.089577
 30
0.0
  0
LWPOLYLINE
  5
10e
100
AcDbEntity
  8
Layer_1
 62
7
100
AcDbPolyline
 90
11
 70
0
 10
4.633260
 20
2.881453
 30
0.0
 10
4.465037
 20
2.884623
 30
0.0
 10
4.346377
 20
2.812617
 30
0.0
 10
4.303727
 20
2.717428
 30
0.0
 10
4.341426
 20
2.600928
 30
0.0
 10
4.466006
 20
2.511776
 30
0.0
 10
4.578740
 20
2.475498
 30
0.0
 10
4.648361
 20
2.339740
 30
0.0
 10
4.585866
 20
2.240068
 30
0.0
 10
4.474999
 20
2.187242
 30
0.0
 10
4.308120
 20
2.197583
 30
0.0
  0
LWPOLYLINE
  5
10f
100
AcDbEntity
  8
Layer_1
 62
7
100
AcDbPolyline
 90
2
 70
0
 10
0.769135
 20
2.918076
 30
0.0
 10
1.369704
 20
2.928706
 30
0.0
  0
LWPOLYLINE
  5
110
100
AcDbEntity
  8
Layer_1
 62
7
100
AcDbPolyline
 90
4
 70
0
 10
1.077202
 20
2.909011
 30
0.0
 10
1.077202
 20
2.114995
 30
0.0
 10
1.372793
 20
2.116905
 30
0.0
 10
0.820404
 20
2.113275
 30
0.0
  0
LWPOLYLINE
  5
111
100
AcDbEntity
  8
Layer_1
 62
7
100
AcDbPolyline
 90
8
 70
0
 10
1.601409
 20
2.112600
 30
0.0
 10
1.585451
 20
2.933236
 30
0.0
 10
2.010540
 20
2.957574
 30
0.0
 10
2.010603
 20
2.602846
 30
0.0
 10
1.738573
 20
2.588169
 30
0.0
 10
1.716943
 20
2.542976
 30
0.0
 10
1.754354
 20
2.521652
 30
0.0
 10
2.051167
 20
2.186345
 30
0.0
  0
LWPOLYLINE
  5
112
100
AcDbEntity
  8
Layer_1
 62
7
100
AcDbPolyline
 90
13
 70
0
 10
2.442768
 20
2.923767
 30
0.0
 10
2.457240
 20
2.176547
 30
0.0
 10
2.442768
 20
2.923767
 30
0.0
 10
2.501993
 20
2.918430
 30
0.0
 10
2.548055
 20
2.909700
 30
0.0
 10
2.619393
 20
2.889684
 30
0.0
 10
2.684590
 20
2.860549
 30
0.0
 10
2.727674
 20
2.805695
 30
0.0
 10
2.740410
 20
2.716323
 30
0.0
 10
2.699037
 20
2.633602
 30
0.0
 10
2.636032
 20
2.595246
 30
0.0
 10
2.487256
 20
2.570924
 30
0.0
 10
2.450677
 20
2.569514
 30
0.0
  0
LWPOLYLINE
  5
113
100
AcDbEntity
  8
Layer_1
 62
7
100
AcDbPolyline
 90
3
 70
0
 10
2.848784
 20
2.893119
 30
0.0
 10
2.842114
 20
2.155600
 30
0.0
 10
3.138658
 20
2.155600
 30
0.0
  0
LWPOLYLINE
  5
114
100
AcDbEntity
  8
Layer_1
 62
7
100
AcDbPolyline
 90
15
 70
0
 10
3.436812
 20
2.798420
 30
0.0
 10
3.323373
 20
2.798420
 30
0.0
 10
3.265877
 20
2.745275
 30
0.0
 10
3.220449
 20
2.622625
 30
0.0
 10
3.211769
 20
2.511931
 30
0.0
 10
3.232216
 20
2.311618
 30
0.0
 10
3.284461
 20
2.197380
 30
0.0
 10
3.341519
 20
2.165695
 30
0.0
 10
3.420983
 20
2.159795
 30
0.0
 10
3.531177
 20
2.213372
 30
0.0
 10
3.590745
 20
2.332313
 30
0.0
 10
3.609310
 20
2.492261
 30
0.0
 10
3.580850
 20
2.622231
 30
0.0
 10
3.520189
 20
2.729989
 30
0.0
 10
3.439350
 20
2.796938
 30
0.0
  0
LWPOLYLINE
  5
115
100
AcDbEntity
  8
Layer_1
 62
7
100
AcDbPolyline
 90
2
 70
0
 10
3.583357
 20
2.847678
 30
0.0
 10
4.220364
 20
2.864118
 30
0.0
  0
LWPOLYLINE
  5
116
100
AcDbEntity
  8
Layer_1
 62
7
100
AcDbPolyline
 90
2
 70
0
 10
3.897054
 20
2.837564
 30
0.0
 10
3.897054
 20
2.171097
 30
0.0
  0
LWPOLYLINE
  5
117
100
AcDbEntity
  8
Layer_1
 62
7
100
AcDbPolyline
 90
3
 70
0
 10
2.323485
 20
1.669639
 30
0.0
 10
2.316815
 20
0.932119
 30
0.0
 10
2.613359
 20
0.932119
 30
0.0
  0
LWPOLYLINE
  5
118
100
AcDbEntity
  8
Layer_1
 62
7
100
AcDbPolyline
 90
15
 70
0
 10
2.911513
 20
1.574940
 30
0.0
 10
2.798074
 20
1.574940
 30
0.0
 10
2.740578
 20
1.521795
 30
0.0
 10
2.695150
 20
1.399145
 30
0.0
 10
2.686470
 20
1.288451
 30
0.0
 10
2.706917
 20
1.088138
 30
0.0
 10
2.759162
 20
0.973900
 30
0.0
 10
2.816220
 20
0.942215
 30
0.0
 10
2.895684
 20
0.936315
 30
0.0
 10
3.005877
 20
0.989892
 30
0.0
 10
3.065445
 20
1.108833
 30
0.0
 10
3.084010
 20
1.268781
 30
0.0
 10
3.055550
 20
1.398751
 30
0.0
 10
2.994889
 20
1.506509
 30
0.0
 10
2.914050
 20
1.573458
 30
0.0
  0
LWPOLYLINE
  5
119
100
AcDbEntity
  8
Layer_1
 62
7
100
AcDbPolyline
 90
2
 70
0
 10
3.058058
 20
1.624198
 30
0.0
 10
3.695065
 20
1.640638
 30
0.0
  0
LWPOLYLINE
  5
11a
100
AcDbEntity
  8
Layer_1
 62
7
100
AcDbPolyline
 90
2
 70
0
 10
3.371754
 20
1.614084
 30
0.0
 10
3.371754
 20
0.947617
 30
0.0
  0
LWPOLYLINE
  5
11b
100
AcDbEntity
  8
Layer_1
 62
7
100
AcDbPolyline
 90
6
 70
0
 10
4.687034
 20
2.576993
 30
0.0
 10
4.906713
 20
2.578263
 30
0.0
 10
4.910863
 20
2.475387
 30
0.0
 10
4.683789
 20
2.475335
 30
0.0
 10
4.684246
 20
2.576791
 30
0.0
 10
4.700810
 20
2.575813
 30
0.0
  0
LWPOLYLINE
  5
11c
100
AcDbEntity
  8
Layer_1
 62
7
100
AcDbPolyline
 90
6
 70
0
 10
1.844291
 20
1.307015
 30
0.0
 10
2.063970
 20
1.308285
 30
0.0
 10
2.068120
 20
1.205409
 30
0.0
 10
1.841046
 20
1.205357
 30
0.0
 10
1.841503
 20
1.306814
 30
0.0
 10
1.858067
 20
1.305835
 30
0.0
  0
LWPOLYLINE
  5
11d
100
AcDbEntity
  8
Layer_1
 62
7
100
AcDbPolyline
 90
3
 70
0
 10
1.053684
 20
0.821209
 30
0.0
 10
1.372840
 20
1.689813
 30
0.0
 10
1.680693
 20
0.838535
 30
0.0
  0
LWPOLYLINE
  5
11e
100
AcDbEntity
  8
Layer_1
 62
7
100
AcDbPolyline
 90
2
 70
0
 10
1.556204
 20
1.176143
 30
0.0
 10
1.212450
 20
1.179313
 30
0.0
  0
ENDSEC
  0
SECTION
  2
OBJECTS
  0
DICTIONARY
  5
C
330
0
100
AcDbDictionary
  3
ACAD_GROUP
350
D
  3
ACAD_MLINESTYLE
350
17
  0
DICTIONARY
  5
D
330
C
100
AcDbDictionary
  0
DICTIONARY
  5
1A
330
C
100
AcDbDictionary
  0
DICTIONARY
  5
17
330
C
100
AcDbDictionary
  3
STANDARD
350
18
  0
DICTIONARY
  5
19
330
C
100
AcDbDictionary
  0
ENDSEC
  0
EOF
